<mxfile host="Electron" modified="2024-07-09T23:19:38.711Z" agent="Mozilla/5.0 (Windows NT 10.0; Win64; x64) AppleWebKit/537.36 (KHTML, like Gecko) draw.io/24.1.0 Chrome/120.0.6099.109 Electron/28.1.0 Safari/537.36" etag="4DaEkEJrfAWsC4hEfTbS" version="24.1.0" type="device">
  <diagram name="PÃ¡gina-1" id="ixXnQI34A-VP43LS-joY">
    <mxGraphModel dx="1674" dy="836" grid="1" gridSize="10" guides="1" tooltips="1" connect="1" arrows="1" fold="1" page="1" pageScale="1" pageWidth="2339" pageHeight="3300" math="0" shadow="0">
      <root>
        <mxCell id="0" />
        <mxCell id="1" parent="0" />
        <mxCell id="5wJS6dcUd3eReBZGcH-P-4" value="" style="edgeStyle=orthogonalEdgeStyle;rounded=0;orthogonalLoop=1;jettySize=auto;html=1;" edge="1" parent="1" source="5wJS6dcUd3eReBZGcH-P-2" target="5wJS6dcUd3eReBZGcH-P-3">
          <mxGeometry relative="1" as="geometry" />
        </mxCell>
        <mxCell id="5wJS6dcUd3eReBZGcH-P-2" value="Inicio" style="ellipse;whiteSpace=wrap;html=1;aspect=fixed;" vertex="1" parent="1">
          <mxGeometry x="720" y="40" width="80" height="80" as="geometry" />
        </mxCell>
        <mxCell id="5wJS6dcUd3eReBZGcH-P-6" value="" style="edgeStyle=orthogonalEdgeStyle;rounded=0;orthogonalLoop=1;jettySize=auto;html=1;" edge="1" parent="1" source="5wJS6dcUd3eReBZGcH-P-3" target="5wJS6dcUd3eReBZGcH-P-5">
          <mxGeometry relative="1" as="geometry" />
        </mxCell>
        <mxCell id="5wJS6dcUd3eReBZGcH-P-3" value="&lt;br&gt;&lt;div style=&quot;color: #d4d4d4;background-color: #252e38;font-family: Consolas, &#39;Courier New&#39;, monospace;font-weight: normal;font-size: 12px;line-height: 16px;white-space: pre;&quot;&gt;&lt;div&gt;&lt;span style=&quot;color: #569cd6;&quot;&gt;var&lt;/span&gt;&lt;span style=&quot;color: #d4d4d4;&quot;&gt; &lt;/span&gt;&lt;span style=&quot;color: #9cdcfe;&quot;&gt;inputs&lt;/span&gt;&lt;span style=&quot;color: #d4d4d4;&quot;&gt; = &lt;/span&gt;&lt;span style=&quot;color: #dcdcaa;&quot;&gt;readline&lt;/span&gt;&lt;span style=&quot;color: #d4d4d4;&quot;&gt;().&lt;/span&gt;&lt;span style=&quot;color: #dcdcaa;&quot;&gt;split&lt;/span&gt;&lt;span style=&quot;color: #d4d4d4;&quot;&gt;(&lt;/span&gt;&lt;span style=&quot;color: #ce9178;&quot;&gt;&#39; &#39;&lt;/span&gt;&lt;span style=&quot;color: #d4d4d4;&quot;&gt;);&lt;/span&gt;&lt;/div&gt;&lt;div&gt;&lt;span style=&quot;color: #569cd6;&quot;&gt;const&lt;/span&gt;&lt;span style=&quot;color: #d4d4d4;&quot;&gt; &lt;/span&gt;&lt;span style=&quot;color: #9cdcfe;&quot;&gt;lightX&lt;/span&gt;&lt;span style=&quot;color: #d4d4d4;&quot;&gt; = &lt;/span&gt;&lt;span style=&quot;color: #dcdcaa;&quot;&gt;parseInt&lt;/span&gt;&lt;span style=&quot;color: #d4d4d4;&quot;&gt;(&lt;/span&gt;&lt;span style=&quot;color: #9cdcfe;&quot;&gt;inputs&lt;/span&gt;&lt;span style=&quot;color: #d4d4d4;&quot;&gt;[&lt;/span&gt;&lt;span style=&quot;color: #b5cea8;&quot;&gt;0&lt;/span&gt;&lt;span style=&quot;color: #d4d4d4;&quot;&gt;]);&lt;/span&gt;&lt;/div&gt;&lt;div&gt;&lt;span style=&quot;color: #569cd6;&quot;&gt;const&lt;/span&gt;&lt;span style=&quot;color: #d4d4d4;&quot;&gt; &lt;/span&gt;&lt;span style=&quot;color: #9cdcfe;&quot;&gt;lightY&lt;/span&gt;&lt;span style=&quot;color: #d4d4d4;&quot;&gt; = &lt;/span&gt;&lt;span style=&quot;color: #dcdcaa;&quot;&gt;parseInt&lt;/span&gt;&lt;span style=&quot;color: #d4d4d4;&quot;&gt;(&lt;/span&gt;&lt;span style=&quot;color: #9cdcfe;&quot;&gt;inputs&lt;/span&gt;&lt;span style=&quot;color: #d4d4d4;&quot;&gt;[&lt;/span&gt;&lt;span style=&quot;color: #b5cea8;&quot;&gt;1&lt;/span&gt;&lt;span style=&quot;color: #d4d4d4;&quot;&gt;]);&lt;/span&gt;&lt;/div&gt;&lt;div&gt;&lt;span style=&quot;color: #569cd6;&quot;&gt;const&lt;/span&gt;&lt;span style=&quot;color: #d4d4d4;&quot;&gt; &lt;/span&gt;&lt;span style=&quot;color: #9cdcfe;&quot;&gt;initialTx&lt;/span&gt;&lt;span style=&quot;color: #d4d4d4;&quot;&gt; = &lt;/span&gt;&lt;span style=&quot;color: #dcdcaa;&quot;&gt;parseInt&lt;/span&gt;&lt;span style=&quot;color: #d4d4d4;&quot;&gt;(&lt;/span&gt;&lt;span style=&quot;color: #9cdcfe;&quot;&gt;inputs&lt;/span&gt;&lt;span style=&quot;color: #d4d4d4;&quot;&gt;[&lt;/span&gt;&lt;span style=&quot;color: #b5cea8;&quot;&gt;2&lt;/span&gt;&lt;span style=&quot;color: #d4d4d4;&quot;&gt;]);&lt;/span&gt;&lt;/div&gt;&lt;div&gt;&lt;span style=&quot;color: #569cd6;&quot;&gt;const&lt;/span&gt;&lt;span style=&quot;color: #d4d4d4;&quot;&gt; &lt;/span&gt;&lt;span style=&quot;color: #9cdcfe;&quot;&gt;initialTy&lt;/span&gt;&lt;span style=&quot;color: #d4d4d4;&quot;&gt; = &lt;/span&gt;&lt;span style=&quot;color: #dcdcaa;&quot;&gt;parseInt&lt;/span&gt;&lt;span style=&quot;color: #d4d4d4;&quot;&gt;(&lt;/span&gt;&lt;span style=&quot;color: #9cdcfe;&quot;&gt;inputs&lt;/span&gt;&lt;span style=&quot;color: #d4d4d4;&quot;&gt;[&lt;/span&gt;&lt;span style=&quot;color: #b5cea8;&quot;&gt;3&lt;/span&gt;&lt;span style=&quot;color: #d4d4d4;&quot;&gt;]);&lt;/span&gt;&lt;/div&gt;&lt;/div&gt;&lt;div&gt;&lt;br/&gt;&lt;/div&gt;" style="rounded=0;whiteSpace=wrap;html=1;" vertex="1" parent="1">
          <mxGeometry x="607.5" y="170" width="305" height="130" as="geometry" />
        </mxCell>
        <mxCell id="5wJS6dcUd3eReBZGcH-P-12" value="" style="edgeStyle=orthogonalEdgeStyle;rounded=0;orthogonalLoop=1;jettySize=auto;html=1;" edge="1" parent="1" source="5wJS6dcUd3eReBZGcH-P-5" target="5wJS6dcUd3eReBZGcH-P-11">
          <mxGeometry relative="1" as="geometry" />
        </mxCell>
        <mxCell id="5wJS6dcUd3eReBZGcH-P-48" value="" style="edgeStyle=orthogonalEdgeStyle;rounded=0;orthogonalLoop=1;jettySize=auto;html=1;" edge="1" parent="1" source="5wJS6dcUd3eReBZGcH-P-5" target="5wJS6dcUd3eReBZGcH-P-47">
          <mxGeometry relative="1" as="geometry" />
        </mxCell>
        <mxCell id="5wJS6dcUd3eReBZGcH-P-5" value="&lt;div style=&quot;color: rgb(212, 212, 212); background-color: rgb(37, 46, 56); font-family: Consolas, &amp;quot;Courier New&amp;quot;, monospace; line-height: 16px; white-space: pre;&quot;&gt;&lt;span style=&quot;color: #c586c0;&quot;&gt;while&lt;/span&gt; (&lt;span style=&quot;color: #569cd6;&quot;&gt;true&lt;/span&gt;)&lt;/div&gt;" style="strokeWidth=2;html=1;shape=mxgraph.flowchart.decision;whiteSpace=wrap;" vertex="1" parent="1">
          <mxGeometry x="670" y="350" width="180" height="160" as="geometry" />
        </mxCell>
        <mxCell id="5wJS6dcUd3eReBZGcH-P-17" value="" style="edgeStyle=orthogonalEdgeStyle;rounded=0;orthogonalLoop=1;jettySize=auto;html=1;" edge="1" parent="1" source="5wJS6dcUd3eReBZGcH-P-11" target="5wJS6dcUd3eReBZGcH-P-16">
          <mxGeometry relative="1" as="geometry" />
        </mxCell>
        <mxCell id="5wJS6dcUd3eReBZGcH-P-11" value="&lt;div style=&quot;color: #d4d4d4;background-color: #252e38;font-family: Consolas, &#39;Courier New&#39;, monospace;font-weight: normal;font-size: 12px;line-height: 16px;white-space: pre;&quot;&gt;&lt;div&gt;&lt;span style=&quot;color: #569cd6;&quot;&gt;const&lt;/span&gt;&lt;span style=&quot;color: #d4d4d4;&quot;&gt; &lt;/span&gt;&lt;span style=&quot;color: #9cdcfe;&quot;&gt;remainingTurns&lt;/span&gt;&lt;span style=&quot;color: #d4d4d4;&quot;&gt; = &lt;/span&gt;&lt;span style=&quot;color: #dcdcaa;&quot;&gt;parseInt&lt;/span&gt;&lt;span style=&quot;color: #d4d4d4;&quot;&gt;(&lt;/span&gt;&lt;span style=&quot;color: #dcdcaa;&quot;&gt;readline&lt;/span&gt;&lt;span style=&quot;color: #d4d4d4;&quot;&gt;())&lt;/span&gt;&lt;/div&gt;&lt;/div&gt;" style="rounded=0;whiteSpace=wrap;html=1;" vertex="1" parent="1">
          <mxGeometry x="610" y="570" width="300" height="70" as="geometry" />
        </mxCell>
        <mxCell id="5wJS6dcUd3eReBZGcH-P-19" value="" style="edgeStyle=orthogonalEdgeStyle;rounded=0;orthogonalLoop=1;jettySize=auto;html=1;" edge="1" parent="1" source="5wJS6dcUd3eReBZGcH-P-16" target="5wJS6dcUd3eReBZGcH-P-18">
          <mxGeometry relative="1" as="geometry" />
        </mxCell>
        <mxCell id="5wJS6dcUd3eReBZGcH-P-16" value="&lt;div style=&quot;color: rgb(212, 212, 212); background-color: rgb(37, 46, 56); font-family: Consolas, &amp;quot;Courier New&amp;quot;, monospace; line-height: 16px; white-space: pre;&quot;&gt;&lt;div&gt;&lt;span style=&quot;color: #569cd6;&quot;&gt;let&lt;/span&gt; &lt;span style=&quot;color: #9cdcfe;&quot;&gt;x&lt;/span&gt; =&lt;span style=&quot;color: #ce9178;&quot;&gt;&quot;&quot;&lt;/span&gt;;&lt;/div&gt;&lt;div&gt;&amp;nbsp;&lt;span style=&quot;color: #569cd6;&quot;&gt;let&lt;/span&gt; &lt;span style=&quot;color: #9cdcfe;&quot;&gt;y&lt;/span&gt; = &lt;span style=&quot;color: #ce9178;&quot;&gt;&quot;&quot;&lt;/span&gt;;&lt;/div&gt;&lt;/div&gt;" style="rounded=0;whiteSpace=wrap;html=1;" vertex="1" parent="1">
          <mxGeometry x="695" y="710" width="130" height="60" as="geometry" />
        </mxCell>
        <mxCell id="5wJS6dcUd3eReBZGcH-P-22" value="" style="edgeStyle=orthogonalEdgeStyle;rounded=0;orthogonalLoop=1;jettySize=auto;html=1;" edge="1" parent="1" source="5wJS6dcUd3eReBZGcH-P-18" target="5wJS6dcUd3eReBZGcH-P-21">
          <mxGeometry relative="1" as="geometry" />
        </mxCell>
        <mxCell id="5wJS6dcUd3eReBZGcH-P-26" value="" style="edgeStyle=orthogonalEdgeStyle;rounded=0;orthogonalLoop=1;jettySize=auto;html=1;" edge="1" parent="1" source="5wJS6dcUd3eReBZGcH-P-18" target="5wJS6dcUd3eReBZGcH-P-25">
          <mxGeometry relative="1" as="geometry" />
        </mxCell>
        <mxCell id="5wJS6dcUd3eReBZGcH-P-18" value="&lt;div style=&quot;color: rgb(212, 212, 212); background-color: rgb(37, 46, 56); font-family: Consolas, &amp;quot;Courier New&amp;quot;, monospace; line-height: 16px; white-space: pre;&quot;&gt;&lt;span style=&quot;color: #c586c0;&quot;&gt;if&lt;/span&gt; (&lt;span style=&quot;color: #9cdcfe;&quot;&gt;initialTy&lt;/span&gt; &amp;gt; &lt;span style=&quot;color: #9cdcfe;&quot;&gt;lightY&lt;/span&gt;)&lt;/div&gt;" style="rhombus;whiteSpace=wrap;html=1;" vertex="1" parent="1">
          <mxGeometry x="655" y="830" width="210" height="80" as="geometry" />
        </mxCell>
        <mxCell id="5wJS6dcUd3eReBZGcH-P-30" style="edgeStyle=orthogonalEdgeStyle;rounded=0;orthogonalLoop=1;jettySize=auto;html=1;exitX=0.5;exitY=1;exitDx=0;exitDy=0;entryX=0.5;entryY=0;entryDx=0;entryDy=0;" edge="1" parent="1" source="5wJS6dcUd3eReBZGcH-P-21" target="5wJS6dcUd3eReBZGcH-P-29">
          <mxGeometry relative="1" as="geometry" />
        </mxCell>
        <mxCell id="5wJS6dcUd3eReBZGcH-P-21" value="&lt;div style=&quot;color: rgb(212, 212, 212); background-color: rgb(37, 46, 56); font-family: Consolas, &amp;quot;Courier New&amp;quot;, monospace; line-height: 16px; white-space: pre;&quot;&gt;&lt;div&gt;&lt;span style=&quot;color: #9cdcfe;&quot;&gt;y&lt;/span&gt; = &lt;span style=&quot;color: #ce9178;&quot;&gt;&quot;N&quot;&lt;/span&gt;;&lt;/div&gt;&lt;div&gt;&amp;nbsp; &lt;span style=&quot;color: #9cdcfe;&quot;&gt;initialTy&lt;/span&gt;++;&lt;/div&gt;&lt;/div&gt;" style="whiteSpace=wrap;html=1;" vertex="1" parent="1">
          <mxGeometry x="500" y="950" width="120" height="100" as="geometry" />
        </mxCell>
        <mxCell id="5wJS6dcUd3eReBZGcH-P-28" value="" style="edgeStyle=orthogonalEdgeStyle;rounded=0;orthogonalLoop=1;jettySize=auto;html=1;" edge="1" parent="1" source="5wJS6dcUd3eReBZGcH-P-25" target="5wJS6dcUd3eReBZGcH-P-27">
          <mxGeometry relative="1" as="geometry" />
        </mxCell>
        <mxCell id="5wJS6dcUd3eReBZGcH-P-32" style="edgeStyle=orthogonalEdgeStyle;rounded=0;orthogonalLoop=1;jettySize=auto;html=1;exitX=1;exitY=0.5;exitDx=0;exitDy=0;entryX=0.5;entryY=0;entryDx=0;entryDy=0;" edge="1" parent="1" source="5wJS6dcUd3eReBZGcH-P-25" target="5wJS6dcUd3eReBZGcH-P-29">
          <mxGeometry relative="1" as="geometry">
            <Array as="points">
              <mxPoint x="1150" y="1000" />
              <mxPoint x="1150" y="1260" />
              <mxPoint x="825" y="1260" />
            </Array>
          </mxGeometry>
        </mxCell>
        <mxCell id="5wJS6dcUd3eReBZGcH-P-25" value="&lt;div style=&quot;color: #d4d4d4;background-color: #252e38;font-family: Consolas, &#39;Courier New&#39;, monospace;font-weight: normal;font-size: 12px;line-height: 16px;white-space: pre;&quot;&gt;&lt;div&gt;&lt;span style=&quot;color: #c586c0;&quot;&gt;else&lt;/span&gt;&lt;span style=&quot;color: #d4d4d4;&quot;&gt; &lt;/span&gt;&lt;span style=&quot;color: #c586c0;&quot;&gt;if&lt;/span&gt;&lt;span style=&quot;color: #d4d4d4;&quot;&gt; (&lt;/span&gt;&lt;span style=&quot;color: #9cdcfe;&quot;&gt;initialTy&lt;/span&gt;&lt;span style=&quot;color: #d4d4d4;&quot;&gt; &amp;lt; &lt;/span&gt;&lt;span style=&quot;color: #9cdcfe;&quot;&gt;lightY&lt;/span&gt;&lt;span style=&quot;color: #d4d4d4;&quot;&gt;)&lt;/span&gt;&lt;/div&gt;&lt;/div&gt;" style="rhombus;whiteSpace=wrap;html=1;" vertex="1" parent="1">
          <mxGeometry x="880" y="935" width="250" height="130" as="geometry" />
        </mxCell>
        <mxCell id="5wJS6dcUd3eReBZGcH-P-31" style="edgeStyle=orthogonalEdgeStyle;rounded=0;orthogonalLoop=1;jettySize=auto;html=1;exitX=0.5;exitY=1;exitDx=0;exitDy=0;entryX=0.5;entryY=0;entryDx=0;entryDy=0;" edge="1" parent="1" source="5wJS6dcUd3eReBZGcH-P-27" target="5wJS6dcUd3eReBZGcH-P-29">
          <mxGeometry relative="1" as="geometry">
            <mxPoint x="920" y="1300" as="targetPoint" />
          </mxGeometry>
        </mxCell>
        <mxCell id="5wJS6dcUd3eReBZGcH-P-27" value="&lt;div style=&quot;color: rgb(212, 212, 212); background-color: rgb(37, 46, 56); font-family: Consolas, &amp;quot;Courier New&amp;quot;, monospace; line-height: 16px; white-space: pre;&quot;&gt;&lt;div&gt;&lt;span style=&quot;color: #9cdcfe;&quot;&gt;y&lt;/span&gt; = &lt;span style=&quot;color: #ce9178;&quot;&gt;&quot;S&quot;&lt;/span&gt;;&lt;/div&gt;&lt;div&gt;&amp;nbsp; &lt;span style=&quot;color: #9cdcfe;&quot;&gt;initialTy&lt;/span&gt;--;&lt;/div&gt;&lt;/div&gt;" style="whiteSpace=wrap;html=1;" vertex="1" parent="1">
          <mxGeometry x="945" y="1100" width="120" height="60" as="geometry" />
        </mxCell>
        <mxCell id="5wJS6dcUd3eReBZGcH-P-36" value="" style="edgeStyle=orthogonalEdgeStyle;rounded=0;orthogonalLoop=1;jettySize=auto;html=1;" edge="1" parent="1" source="5wJS6dcUd3eReBZGcH-P-29" target="5wJS6dcUd3eReBZGcH-P-35">
          <mxGeometry relative="1" as="geometry" />
        </mxCell>
        <mxCell id="5wJS6dcUd3eReBZGcH-P-39" value="" style="edgeStyle=orthogonalEdgeStyle;rounded=0;orthogonalLoop=1;jettySize=auto;html=1;" edge="1" parent="1" source="5wJS6dcUd3eReBZGcH-P-29" target="5wJS6dcUd3eReBZGcH-P-38">
          <mxGeometry relative="1" as="geometry" />
        </mxCell>
        <mxCell id="5wJS6dcUd3eReBZGcH-P-29" value="&lt;div style=&quot;color: rgb(212, 212, 212); background-color: rgb(37, 46, 56); font-family: Consolas, &amp;quot;Courier New&amp;quot;, monospace; line-height: 16px; white-space: pre;&quot;&gt;&lt;span style=&quot;color: #c586c0;&quot;&gt;if&lt;/span&gt; (&lt;span style=&quot;color: #9cdcfe;&quot;&gt;initialTx&lt;/span&gt; &amp;gt; &lt;span style=&quot;color: #9cdcfe;&quot;&gt;lightX&lt;/span&gt;)&lt;/div&gt;" style="rhombus;whiteSpace=wrap;html=1;" vertex="1" parent="1">
          <mxGeometry x="710" y="1320" width="230" height="80" as="geometry" />
        </mxCell>
        <mxCell id="5wJS6dcUd3eReBZGcH-P-44" style="edgeStyle=orthogonalEdgeStyle;rounded=0;orthogonalLoop=1;jettySize=auto;html=1;exitX=0.5;exitY=1;exitDx=0;exitDy=0;entryX=0.25;entryY=0;entryDx=0;entryDy=0;" edge="1" parent="1" source="5wJS6dcUd3eReBZGcH-P-35" target="5wJS6dcUd3eReBZGcH-P-42">
          <mxGeometry relative="1" as="geometry" />
        </mxCell>
        <mxCell id="5wJS6dcUd3eReBZGcH-P-35" value="&lt;div style=&quot;color: rgb(212, 212, 212); background-color: rgb(37, 46, 56); font-family: Consolas, &amp;quot;Courier New&amp;quot;, monospace; line-height: 16px; white-space: pre;&quot;&gt;&lt;div&gt;&amp;nbsp;&lt;span style=&quot;color: #9cdcfe;&quot;&gt;x&lt;/span&gt; = &lt;span style=&quot;color: #ce9178;&quot;&gt;&quot;W&quot;&lt;/span&gt;;&lt;/div&gt;&lt;div&gt;&amp;nbsp;&lt;span style=&quot;color: #9cdcfe;&quot;&gt;initialTx&lt;/span&gt;++;&lt;/div&gt;&lt;/div&gt;" style="whiteSpace=wrap;html=1;" vertex="1" parent="1">
          <mxGeometry x="500" y="1510" width="120" height="60" as="geometry" />
        </mxCell>
        <mxCell id="5wJS6dcUd3eReBZGcH-P-41" value="" style="edgeStyle=orthogonalEdgeStyle;rounded=0;orthogonalLoop=1;jettySize=auto;html=1;" edge="1" parent="1" source="5wJS6dcUd3eReBZGcH-P-38" target="5wJS6dcUd3eReBZGcH-P-40">
          <mxGeometry relative="1" as="geometry" />
        </mxCell>
        <mxCell id="5wJS6dcUd3eReBZGcH-P-45" style="edgeStyle=orthogonalEdgeStyle;rounded=0;orthogonalLoop=1;jettySize=auto;html=1;exitX=0.5;exitY=1;exitDx=0;exitDy=0;entryX=0.75;entryY=0;entryDx=0;entryDy=0;" edge="1" parent="1" source="5wJS6dcUd3eReBZGcH-P-38" target="5wJS6dcUd3eReBZGcH-P-42">
          <mxGeometry relative="1" as="geometry" />
        </mxCell>
        <mxCell id="5wJS6dcUd3eReBZGcH-P-38" value="&lt;div style=&quot;color: rgb(212, 212, 212); background-color: rgb(37, 46, 56); font-family: Consolas, &amp;quot;Courier New&amp;quot;, monospace; line-height: 16px; white-space: pre;&quot;&gt;&lt;span style=&quot;color: #c586c0;&quot;&gt;if&lt;/span&gt; (&lt;span style=&quot;color: #9cdcfe;&quot;&gt;initialTx&lt;/span&gt; &amp;lt; &lt;span style=&quot;color: #9cdcfe;&quot;&gt;lightX&lt;/span&gt;)&lt;/div&gt;" style="rhombus;whiteSpace=wrap;html=1;" vertex="1" parent="1">
          <mxGeometry x="1010" y="1490" width="230" height="80" as="geometry" />
        </mxCell>
        <mxCell id="5wJS6dcUd3eReBZGcH-P-43" value="" style="edgeStyle=orthogonalEdgeStyle;rounded=0;orthogonalLoop=1;jettySize=auto;html=1;" edge="1" parent="1" source="5wJS6dcUd3eReBZGcH-P-40" target="5wJS6dcUd3eReBZGcH-P-42">
          <mxGeometry relative="1" as="geometry" />
        </mxCell>
        <mxCell id="5wJS6dcUd3eReBZGcH-P-40" value="&lt;div style=&quot;color: rgb(212, 212, 212); background-color: rgb(37, 46, 56); font-family: Consolas, &amp;quot;Courier New&amp;quot;, monospace; line-height: 16px; white-space: pre;&quot;&gt;&lt;div&gt;&lt;span style=&quot;color: #9cdcfe;&quot;&gt;x&lt;/span&gt; = &lt;span style=&quot;color: #ce9178;&quot;&gt;&quot;E&quot;&lt;/span&gt;;&lt;/div&gt;&lt;div&gt;&lt;span style=&quot;color: #9cdcfe;&quot;&gt;initialTx-&lt;/span&gt;-;&lt;/div&gt;&lt;/div&gt;" style="whiteSpace=wrap;html=1;" vertex="1" parent="1">
          <mxGeometry x="880" y="1600" width="120" height="60" as="geometry" />
        </mxCell>
        <mxCell id="5wJS6dcUd3eReBZGcH-P-42" value="&lt;div style=&quot;color: rgb(212, 212, 212); background-color: rgb(37, 46, 56); font-family: Consolas, &amp;quot;Courier New&amp;quot;, monospace; line-height: 16px; white-space: pre;&quot;&gt;&lt;span style=&quot;color: #9cdcfe;&quot;&gt;cosole&lt;/span&gt;.&lt;span style=&quot;color: #dcdcaa;&quot;&gt;log&lt;/span&gt;(&lt;span style=&quot;color: #9cdcfe;&quot;&gt;x&lt;/span&gt;,&lt;span style=&quot;color: #9cdcfe;&quot;&gt;y&lt;/span&gt;);&lt;/div&gt;" style="whiteSpace=wrap;html=1;" vertex="1" parent="1">
          <mxGeometry x="745" y="1870" width="120" height="60" as="geometry" />
        </mxCell>
        <mxCell id="5wJS6dcUd3eReBZGcH-P-46" style="edgeStyle=orthogonalEdgeStyle;rounded=0;orthogonalLoop=1;jettySize=auto;html=1;exitX=0;exitY=0.5;exitDx=0;exitDy=0;entryX=0;entryY=0.5;entryDx=0;entryDy=0;entryPerimeter=0;" edge="1" parent="1" source="5wJS6dcUd3eReBZGcH-P-42" target="5wJS6dcUd3eReBZGcH-P-5">
          <mxGeometry relative="1" as="geometry">
            <Array as="points">
              <mxPoint x="440" y="1900" />
              <mxPoint x="440" y="430" />
            </Array>
          </mxGeometry>
        </mxCell>
        <mxCell id="5wJS6dcUd3eReBZGcH-P-47" value="Fin" style="ellipse;whiteSpace=wrap;html=1;strokeWidth=2;" vertex="1" parent="1">
          <mxGeometry x="980" y="390" width="80" height="80" as="geometry" />
        </mxCell>
      </root>
    </mxGraphModel>
  </diagram>
</mxfile>
